<?xml version="1.0" encoding="UTF-8"?>
<svg version="1.1" xmlns="http://www.w3.org/2000/svg" width="500" height="500">
<path d="M0 0 C1.49574832 -0.0013575 2.9914963 -0.0031394 4.48724365 -0.00531006 C8.51972345 -0.00983969 12.55217746 -0.00811419 16.58465767 -0.00493097 C20.81176952 -0.00238793 25.03887926 -0.00474996 29.26599121 -0.00631714 C36.35376378 -0.00813157 43.4415259 -0.00574993 50.52929688 -0.00097656 C58.72852361 0.00448148 66.92772554 0.00268934 75.12695169 -0.00280297 C82.17426215 -0.00733479 89.22156512 -0.00798482 96.26887655 -0.0053643 C100.47517905 -0.00380406 104.68146986 -0.00360119 108.88777161 -0.00690079 C112.83421244 -0.00978105 116.78062107 -0.00780096 120.72705841 -0.00200653 C122.17752784 -0.00068049 123.62799996 -0.00107042 125.07846832 -0.0032692 C127.05218918 -0.00598632 129.02591595 -0.00198094 130.99963379 0.00241089 C132.10570229 0.00278791 133.21177078 0.00316494 134.35135651 0.00355339 C136.94335938 0.12939453 136.94335938 0.12939453 138.94335938 1.12939453 C139.09569876 8.28243674 139.20065439 15.43505957 139.27294922 22.58935547 C139.30309153 25.02213168 139.34401319 27.45479949 139.39599609 29.88720703 C139.46891843 33.38747924 139.5028427 36.88631289 139.52929688 40.38720703 C139.56026459 41.47180206 139.5912323 42.55639709 139.62313843 43.67385864 C139.62688787 52.11786132 139.62688787 52.11786132 136.03173828 55.86328125 C132.94335938 58.12939453 132.94335938 58.12939453 130.94335938 58.12939453 C130.94335938 58.78939453 130.94335938 59.44939453 130.94335938 60.12939453 C129.54492188 61.53955078 129.54492188 61.53955078 127.56835938 63.19189453 C124.35993 65.92018923 121.1935557 68.68083899 118.06835938 71.50439453 C117.22789062 72.26236328 116.38742187 73.02033203 115.52148438 73.80126953 C114.67070312 74.56955078 113.81992187 75.33783203 112.94335938 76.12939453 C103.44797003 84.70401885 103.44797003 84.70401885 99.13085938 88.44189453 C95.50139268 91.60019314 91.97195347 94.85962767 88.44335938 98.12939453 C86.77839927 99.66580378 85.11289171 101.2016175 83.44726562 102.73730469 C82.1273489 103.95908475 80.81590087 105.19000053 79.50585938 106.42236328 C78.82523438 107.04755859 78.14460937 107.67275391 77.44335938 108.31689453 C76.87617188 108.84669922 76.30898438 109.37650391 75.72460938 109.92236328 C73.94335938 111.12939453 73.94335938 111.12939453 68.94335938 112.12939453 C68.94335938 94.96939453 68.94335938 77.80939453 68.94335938 60.12939453 C52.81139008 60.22026985 52.81139008 60.22026985 36.6796875 60.33837891 C30.09613217 60.3926195 23.51266046 60.44373297 16.92895508 60.47583008 C11.61848395 60.50192062 6.30829504 60.54236386 0.99799919 60.5925808 C-1.02364645 60.60921062 -3.04534086 60.62074901 -5.06704521 60.62700844 C-7.90819461 60.63669181 -10.74862828 60.66480158 -13.58959961 60.69702148 C-14.41751007 60.6955864 -15.24542053 60.69415131 -16.09841919 60.69267273 C-24.8690444 60.832496 -31.89903918 63.12283521 -38.33007812 69.15673828 C-43.91723797 75.54025801 -45.39979854 82.63333872 -45.34960938 90.91455078 C-44.7727366 97.244768 -41.8789257 102.53567636 -39.05664062 108.12939453 C-43.03632638 106.79121648 -45.44412824 105.12601739 -48.36914062 102.12939453 C-49.06652344 101.42814453 -49.76390625 100.72689453 -50.48242188 100.00439453 C-52.05664062 98.12939453 -52.05664062 98.12939453 -52.05664062 96.12939453 C-53.37664062 95.46939453 -54.69664062 94.80939453 -56.05664062 94.12939453 C-56.05664062 93.46939453 -56.05664062 92.80939453 -56.05664062 92.12939453 C-57.37664062 91.46939453 -58.69664062 90.80939453 -60.05664062 90.12939453 C-60.05664062 89.46939453 -60.05664062 88.80939453 -60.05664062 88.12939453 C-60.71664062 88.12939453 -61.37664062 88.12939453 -62.05664062 88.12939453 C-62.05664062 87.46939453 -62.05664062 86.80939453 -62.05664062 86.12939453 C-62.71664062 86.12939453 -63.37664062 86.12939453 -64.05664062 86.12939453 C-64.05664062 85.46939453 -64.05664062 84.80939453 -64.05664062 84.12939453 C-64.63414062 83.87544922 -65.21164063 83.62150391 -65.80664062 83.35986328 C-73.48582913 79.16030707 -78.23475216 71.72749399 -81.36914062 63.81689453 C-82.72039229 56.56927196 -81.81036832 48.5747019 -78.05664062 42.12939453 C-70.47537278 32.37588485 -70.47537278 32.37588485 -65.05664062 30.12939453 C-65.05664062 29.46939453 -65.05664062 28.80939453 -65.05664062 28.12939453 C-63.41210938 26.43798828 -63.41210938 26.43798828 -61.24414062 24.56689453 C-60.53644531 23.94685547 -59.82875 23.32681641 -59.09960938 22.68798828 C-57.05664062 21.12939453 -57.05664062 21.12939453 -54.05664062 20.12939453 C-54.05664062 19.46939453 -54.05664062 18.80939453 -54.05664062 18.12939453 C-53.39664063 18.12939453 -52.73664063 18.12939453 -52.05664062 18.12939453 C-52.05664062 17.46939453 -52.05664062 16.80939453 -52.05664062 16.12939453 C-35.94131243 2.25060428 -20.51982994 -0.03148802 0 0 Z " fill="#F7F6F6" transform="translate(246.056640625,98.87060546875)"/>
<path d="M0 0 C0.99 0 1.98 0 3 0 C3 17.16 3 34.32 3 52 C19.28532675 51.93820462 19.28532675 51.93820462 35.5703125 51.83984375 C42.21745017 51.79158985 48.86442302 51.74751459 55.51171875 51.72900391 C60.87412144 51.71380131 66.23609142 51.67929153 71.59830093 51.63169098 C73.63865512 51.61691435 75.67907109 51.60896113 77.71947861 51.60811615 C92.36283953 51.7754685 92.36283953 51.7754685 106 47 C106.88517303 46.66176208 107.77034607 46.32352417 108.68234253 45.97503662 C111.08306442 45.22574784 111.08306442 45.22574784 112.0625 43.3125 C112.371875 42.549375 112.68125 41.78625 113 41 C114.0127746 39.2480633 115.05363845 37.51471352 116.09765625 35.78125 C118.95272202 30.14527602 118.98481943 23.17380443 117.140625 17.23046875 C116.15362776 14.78800818 115.09452823 12.39565416 114 10 C113.67 9.01 113.34 8.02 113 7 C119.09297484 8.01549581 122.57900034 13.36038501 126.4375 17.8125 C128 20 128 20 128 22 C128.66 22 129.32 22 130 22 C139.74117194 38.24316778 144.83905612 54.64152498 140.4375 73.5625 C136.3558589 87.53427147 127.32265944 98.62078311 114.60546875 105.71875 C103.60949282 111.1260665 93.55869071 112.15552558 81.46313477 112.12939453 C79.94442528 112.13202301 79.94442528 112.13202301 78.39503479 112.13470459 C75.07714075 112.1390757 71.75930075 112.13620346 68.44140625 112.1328125 C66.12735484 112.13348653 63.81330349 112.13445739 61.49925232 112.13571167 C56.66526613 112.13718189 51.83129848 112.13505443 46.99731445 112.13037109 C40.79076203 112.1246518 34.58425264 112.12797094 28.37770176 112.13394356 C23.60721001 112.13754835 18.83672855 112.13641135 14.0662365 112.13381577 C11.77640719 112.13314743 9.48657696 112.13397169 7.19674873 112.13629532 C4.00817488 112.13882288 0.81967205 112.13498077 -2.36889648 112.12939453 C-3.79561676 112.13243088 -3.79561676 112.13243088 -5.25115967 112.13552856 C-6.11597458 112.13270874 -6.98078949 112.12988892 -7.87181091 112.12698364 C-8.62520972 112.12660662 -9.37860853 112.12622959 -10.15483761 112.12584114 C-12 112 -12 112 -14 111 C-14 110.34 -14 109.68 -14 109 C-14.66 109 -15.32 109 -16 109 C-16 108.34 -16 107.68 -16 107 C-16.928125 106.62875 -16.928125 106.62875 -17.875 106.25 C-20.40358627 104.76259631 -20.71839004 103.56321991 -22 101 C-23.32407669 100.31513275 -24.65909241 99.65129797 -26 99 C-28.75 96.5 -28.75 96.5 -31 94 C-31 93.34 -31 92.68 -31 92 C-31.61875 91.7525 -32.2375 91.505 -32.875 91.25 C-35.40358627 89.76259631 -35.71839004 88.56321991 -37 86 C-38.33262787 85.33192426 -39.66606226 84.66545647 -41 84 C-42.73925781 82.51953125 -42.73925781 82.51953125 -44.453125 80.8125 C-45.071875 80.19632812 -45.690625 79.58015625 -46.328125 78.9453125 C-46.96234375 78.30335938 -47.5965625 77.66140625 -48.25 77 C-48.8996875 76.35804688 -49.549375 75.71609375 -50.21875 75.0546875 C-50.83234375 74.43851562 -51.4459375 73.82234375 -52.078125 73.1875 C-52.63918945 72.62417969 -53.20025391 72.06085938 -53.77832031 71.48046875 C-55 70 -55 70 -55 68 C-55.66 68 -56.32 68 -57 68 C-57 67.34 -57 66.68 -57 66 C-57.66 66 -58.32 66 -59 66 C-59 65.34 -59 64.68 -59 64 C-59.66 64 -60.32 64 -61 64 C-61 63.34 -61 62.68 -61 62 C-61.66 62 -62.32 62 -63 62 C-63.8125 60.3125 -63.8125 60.3125 -64 58 C-62.40200795 56.26737858 -60.7196818 54.61190883 -59 53 C-58.06800781 52.11699219 -57.13601562 51.23398437 -56.17578125 50.32421875 C-55.23089844 49.45410156 -54.28601563 48.58398438 -53.3125 47.6875 C-52.35988281 46.80449219 -51.40726563 45.92148437 -50.42578125 45.01171875 C-48 43 -48 43 -46 43 C-46 42.34 -46 41.68 -46 41 C-44.42578125 39.4140625 -44.42578125 39.4140625 -42.3125 37.625 C-41.58417969 37.00753906 -40.85585937 36.39007813 -40.10546875 35.75390625 C-39.41066406 35.17511719 -38.71585938 34.59632813 -38 34 C-37.05125 33.195625 -36.1025 32.39125 -35.125 31.5625 C-33 30 -33 30 -31 30 C-31 29.34 -31 28.68 -31 28 C-30.34 28 -29.68 28 -29 28 C-29 27.34 -29 26.68 -29 26 C-28.34 26 -27.68 26 -27 26 C-27 25.34 -27 24.68 -27 24 C-25.3623728 22.54597658 -23.66265804 21.16151322 -21.9375 19.8125 C-17.94375299 16.62056664 -14.2450097 13.37769771 -10.69921875 9.703125 C-8.12316989 7.12115418 -5.36431316 4.76155149 -2.6015625 2.3828125 C-1.71147181 1.61429517 -0.83152881 0.83152881 0 0 Z " fill="#F7F7F7" transform="translate(180,289)"/>
<path d="M0 0 C3.39615186 0.54307834 6.2107853 2.00290298 9.25 3.5625 C10.14203125 4.01753906 11.0340625 4.47257813 11.953125 4.94140625 C12.96632812 5.46541016 12.96632812 5.46541016 14 6 C14 6.66 14 7.32 14 8 C14.72968994 8.10989258 15.45937988 8.21978516 16.21118164 8.33300781 C19.16244363 9.03885109 21.06875625 10.05200428 23.62109375 11.671875 C27.18124505 13.88157868 30.75676588 16.02567323 34.41015625 18.078125 C35.32893555 18.59431396 36.24771484 19.11050293 37.19433594 19.64233398 C38.61407715 20.43812866 38.61407715 20.43812866 40.0625 21.25 C47.16592356 25.24553258 54.23923282 29.28142607 61.25 33.4375 C66.45269104 36.51923337 71.68174436 39.51742022 77.0078125 42.3828125 C83.30646224 45.78704356 89.55437179 49.28391227 95.8046875 52.77587891 C97.80445727 53.89096405 99.80811814 54.99870599 101.8125 56.10546875 C117.4710999 64.81114275 131.84157469 73.57102496 137.92578125 91.46484375 C141.17424523 103.20269834 141.17258689 118.70448242 135.484375 129.6015625 C134.99453125 130.39304687 134.5046875 131.18453125 134 132 C133.53078125 132.81210937 133.0615625 133.62421875 132.578125 134.4609375 C129.44073037 139.53811913 125.67734122 144.25089403 121 148 C120.34 148 119.68 148 119 148 C119 148.66 119 149.32 119 150 C118.34 150 117.68 150 117 150 C117 150.66 117 151.32 117 152 C115.63671875 153.375 115.63671875 153.375 113.6875 155 C109.09976372 158.8819307 104.70985957 162.95638472 100.3203125 167.05859375 C98 169 98 169 96 169 C96 169.66 96 170.32 96 171 C95.34 171 94.68 171 94 171 C94 171.66 94 172.32 94 173 C91 175 91 175 88 175 C88.165 174.030625 88.33 173.06125 88.5 172.0625 C90.64900355 156.22940033 85.89838339 139.13031095 77 126 C77 125.34 77 124.68 77 124 C76.34 124 75.68 124 75 124 C74.06575835 122.60642287 73.13742533 121.20857499 72.23681641 119.79302979 C69.90391663 116.41099284 67.01662643 113.52215067 64.1875 110.5546875 C63.49736816 109.82619598 62.80723633 109.09770447 62.09619141 108.34713745 C56.12545627 102.08924103 50.01523326 95.97384063 43.875 89.8828125 C43.3933136 89.40486992 42.9116272 88.92692734 42.41534424 88.43450165 C37.93408001 83.98997558 33.44837425 79.54997635 28.95068359 75.12207031 C26.45520876 72.66465617 23.96746313 70.19962776 21.48419189 67.7298851 C20.11398799 66.37136158 18.73561083 65.02109679 17.35693359 63.6711731 C4.39604772 50.76304002 -3.62131436 37.69685753 -4.3125 19.125 C-4.21093622 13.86907424 -3.84362444 3.84362444 0 0 Z " fill="#F7F7F7" transform="translate(242,186)"/>
<path d="M0 0 C0.14695312 1.25103516 0.14695312 1.25103516 0.296875 2.52734375 C2.38564896 18.24716849 9.08148697 27.44622172 20.20507812 38.36865234 C21.40625526 39.56062981 21.40625526 39.56062981 22.63169861 40.77668762 C24.35971186 42.49046637 26.08996956 44.20198444 27.82225037 45.91144943 C30.56870903 48.62291931 33.30784191 51.34159619 36.04504395 54.06240845 C43.82474813 61.79338827 51.615591 69.51306745 59.41552734 77.22363281 C64.1971173 81.95061023 68.96789281 86.68829115 73.73326111 91.43162918 C75.54426522 93.230266 77.35904931 95.02510553 79.17774963 96.81595993 C81.72610958 99.32564045 84.26167981 101.84763159 86.79492188 104.37255859 C87.54003525 105.10014877 88.28514862 105.82773895 89.05284119 106.57737732 C99.4214766 116.98476168 105.33673365 129.39233714 105.375 144.1875 C105.28640105 150.27177879 104.58316687 156.11966592 103 162 C102.01 162.33 101.02 162.66 100 163 C97.28515625 161.55859375 97.28515625 161.55859375 94.0625 159.4375 C89.96202503 156.80310394 85.90332249 154.35979337 81.5 152.25 C67.12516795 145.25123006 53.43855584 136.73441022 39.72314453 128.54077148 C34.49787922 125.42969232 29.21887168 122.45149278 23.87011719 119.55810547 C18.70028331 116.75154883 13.57091732 113.87245587 8.4375 111 C6.84905273 110.11441406 6.84905273 110.11441406 5.22851562 109.2109375 C-30.25675745 89.3584249 -30.25675745 89.3584249 -37 68 C-40.40193849 55.8342389 -38.54899274 41.33157909 -32.5625 30.3671875 C-26.1400318 20.51734444 -16.93217291 12.52491591 -8 5 C-7.42121094 4.49339844 -6.84242188 3.98679688 -6.24609375 3.46484375 C-2.24077298 0 -2.24077298 0 0 0 Z " fill="#F7F6F6" transform="translate(155,152)"/>
<path d="M0 0 C4.79280002 0.80904103 6.13520113 3.25984591 9 7 C8.01 7 7.02 7 6 7 C6.66868314 10.11332248 6.66868314 10.11332248 9.0625 11.1875 C9.701875 11.455625 10.34125 11.72375 11 12 C10.01 13.485 10.01 13.485 9 15 C8.67 15 8.34 15 8 15 C7.67 17.31 7.34 19.62 7 22 C6.67 22 6.34 22 6 22 C5.85304688 20.74896484 5.85304688 20.74896484 5.703125 19.47265625 C4.75800895 12.35984326 3.37938541 6.34865123 0 0 Z " fill="#B5B2B1" transform="translate(293,296)"/>
<path d="M0 0 C0 2.97 0 5.94 0 9 C-0.33 9 -0.66 9 -1 9 C-1.33 7.35 -1.66 5.7 -2 4 C-2.99 4 -3.98 4 -5 4 C-4.67 4.99 -4.34 5.98 -4 7 C-4.721875 7.391875 -5.44375 7.78375 -6.1875 8.1875 C-9.12325423 9.92345758 -9.12325423 9.92345758 -11.5 12.625 C-14.1387772 15.13183834 -15.44253443 15.69507438 -19 16 C-18.28199219 15.28328125 -17.56398437 14.5665625 -16.82421875 13.828125 C-15.00905657 12.01045222 -13.19873609 10.18792443 -11.39453125 8.359375 C-10.54246094 7.49828125 -9.69039062 6.6371875 -8.8125 5.75 C-7.52279297 4.44289062 -7.52279297 4.44289062 -6.20703125 3.109375 C-2.9537037 0 -2.9537037 0 0 0 Z " fill="#C9C6C6" transform="translate(155,152)"/>
<path d="M0 0 C2.0625 0.4375 2.0625 0.4375 4 1 C2.02 1.99 2.02 1.99 0 3 C0 3.66 0 4.32 0 5 C-0.66 5 -1.32 5 -2 5 C-2 5.66 -2 6.32 -2 7 C-4.5 8.625 -4.5 8.625 -7 10 C-7.33 9.01 -7.66 8.02 -8 7 C-7.34 7 -6.68 7 -6 7 C-6 5.68 -6 4.36 -6 3 C-5.195625 2.690625 -4.39125 2.38125 -3.5625 2.0625 C-1.10919595 1.23664655 -1.10919595 1.23664655 0 0 Z " fill="#CBC8C9" transform="translate(361,331)"/>
<path d="M0 0 C1.89668064 2.84502097 3.23263478 5.57299885 4.625 8.6875 C5.07101563 9.68136719 5.51703125 10.67523438 5.9765625 11.69921875 C6.31429687 12.45847656 6.65203125 13.21773437 7 14 C2.6225669 12.44648311 0.70883293 10.81243153 -2 7 C-1.01 7 -0.02 7 1 7 C0.67 4.69 0.34 2.38 0 0 Z " fill="#A5A4A4" transform="translate(200,193)"/>
<path d="M0 0 C0 3.52032428 -0.70351351 4.4385343 -3 7 C-3.66 7 -4.32 7 -5 7 C-5.20625 7.804375 -5.4125 8.60875 -5.625 9.4375 C-6.07875 10.283125 -6.5325 11.12875 -7 12 C-10.125 12.8125 -10.125 12.8125 -13 13 C-11.71937515 11.2925002 -10.38232443 9.62626404 -9 8 C-8.34 8 -7.68 8 -7 8 C-7 7.34 -7 6.68 -7 6 C-5.46875 4.4921875 -5.46875 4.4921875 -3.5 2.875 C-2.8503125 2.33617188 -2.200625 1.79734375 -1.53125 1.2421875 C-0.77328125 0.62730469 -0.77328125 0.62730469 0 0 Z " fill="#C8C6C7" transform="translate(188,121)"/>
<path d="M0 0 C1.65282663 2.47923994 2.81780607 4.66888421 4 7.375 C4.34546875 8.16519531 4.6909375 8.95539063 5.046875 9.76953125 C6.07049277 12.16496464 7.05959722 14.57062615 8 17 C3.125 13.25 3.125 13.25 2 11 C1.01 10.67 0.02 10.34 -1 10 C-0.34 10 0.32 10 1 10 C0.67 6.7 0.34 3.4 0 0 Z " fill="#C8C8C7" transform="translate(155,162)"/>
<path d="M0 0 C0.66 0.33 1.32 0.66 2 1 C0.12050295 4.57104439 -1.17053157 6.54744301 -5 8 C-5 7.34 -5 6.68 -5 6 C-6.32 6.33 -7.64 6.66 -9 7 C-6.25604436 4.05278838 -3.61662784 1.80831392 0 0 Z " fill="#D0CFD0" transform="translate(210,104)"/>
<path d="M0 0 C1.43088528 2.86177057 0.59991697 4.93375773 0 8 C-1.32 7.34 -2.64 6.68 -4 6 C-4.99 7.485 -4.99 7.485 -6 9 C-6.99 8.67 -7.98 8.34 -9 8 C-6.03 5.36 -3.06 2.72 0 0 Z " fill="#BDBBBC" transform="translate(128,336)"/>
<path d="M0 0 C3.41943506 0.42269769 6.72174346 0.91991217 10 2 C11.625 4.625 11.625 4.625 12 7 C7.69235185 5.43358249 3.93828536 3.31663844 0 1 C0 0.67 0 0.34 0 0 Z " fill="#BEBCBB" transform="translate(229,299)"/>
<path d="M0 0 C0.66 1.32 1.32 2.64 2 4 C-2.95 6.475 -2.95 6.475 -8 9 C-6.90101298 5.70303895 -6.05402613 4.95329411 -3.4375 2.8125 C-2.79683594 2.28269531 -2.15617188 1.75289063 -1.49609375 1.20703125 C-0.75552734 0.60955078 -0.75552734 0.60955078 0 0 Z " fill="#C1BFC0" transform="translate(178,291)"/>
<path d="M0 0 C3.7910119 1.44950455 7.3874638 3.15172566 11 5 C7.96929372 6.28222189 6.96403086 5.98589446 3.8125 4.75 C1 3 1 3 0 0 Z " fill="#C6C5C4" transform="translate(306,222)"/>
<path d="M0 0 C2.92879371 0.62759865 5.36095629 1.58622659 8 3 C5.4791665 4.26041675 4.64903564 3.66225891 2 3 C1.01 3.495 1.01 3.495 0 4 C-0.65555119 6.52733235 -0.65555119 6.52733235 -1 9 C-1.33 9 -1.66 9 -2 9 C-2.25 3.375 -2.25 3.375 0 0 Z " fill="#AEABAA" transform="translate(242,186)"/>
<path d="M0 0 C-0.99 1.485 -0.99 1.485 -2 3 C-2.33 3 -2.66 3 -3 3 C-3.33 5.31 -3.66 7.62 -4 10 C-4.33 10 -4.66 10 -5 10 C-5.33 6.7 -5.66 3.4 -6 0 C-3.50907189 -1.24546405 -2.58919267 -0.7767578 0 0 Z " fill="#C8C6C7" transform="translate(304,308)"/>
<path d="M0 0 C0 2.97 0 5.94 0 9 C-0.33 9 -0.66 9 -1 9 C-1.33 7.35 -1.66 5.7 -2 4 C-3.65 4.33 -5.3 4.66 -7 5 C-2.25 0 -2.25 0 0 0 Z " fill="#B9B5B6" transform="translate(155,152)"/>
<path d="M0 0 C2.875 0.625 2.875 0.625 6 2 C7.375 5.125 7.375 5.125 8 8 C6.85073734 7.04578192 5.70569459 6.08647955 4.5625 5.125 C3.92441406 4.59132813 3.28632813 4.05765625 2.62890625 3.5078125 C1 2 1 2 0 0 Z " fill="#B2B1B1" transform="translate(279,268)"/>
<path d="M0 0 C1.98 0 3.96 0 6 0 C6.33 1.98 6.66 3.96 7 6 C6.34 6 5.68 6 5 6 C5 5.34 5 4.68 5 4 C4.360625 3.71125 3.72125 3.4225 3.0625 3.125 C1 2 1 2 0 0 Z " fill="#CCCBCC" transform="translate(177,179)"/>
<path d="M0 0 C0.99 0 1.98 0 3 0 C2.71125 0.70125 2.4225 1.4025 2.125 2.125 C0.97866412 5.05452503 -0.02625654 8.00921653 -1 11 C-1.33 11 -1.66 11 -2 11 C-2.19622241 6.78121808 -1.80230168 3.82989106 0 0 Z " fill="#BCBBBB" transform="translate(202,170)"/>
<path d="M0 0 C1 3 1 3 0 6 C-0.66 6 -1.32 6 -2 6 C-2.33 6.66 -2.66 7.32 -3 8 C-3 7.34 -3 6.68 -3 6 C-3.66 5.67 -4.32 5.34 -5 5 C-3.35 3.35 -1.7 1.7 0 0 Z " fill="#D2CACA" transform="translate(168,300)"/>
<path d="M0 0 C2.475 0.495 2.475 0.495 5 1 C4.67 2.32 4.34 3.64 4 5 C2.68 4.34 1.36 3.68 0 3 C0 2.01 0 1.02 0 0 Z " fill="#F2F0F1" transform="translate(299,303)"/>
<path d="M0 0 C0.33 0.66 0.66 1.32 1 2 C3.02463255 2.65213292 3.02463255 2.65213292 5 3 C1.86501708 4.85776765 -0.37471432 5.20140476 -4 5 C-2.68 3.35 -1.36 1.7 0 0 Z " fill="#C3C2C1" transform="translate(287,393)"/>
<path d="M0 0 C2.0625 0.4375 2.0625 0.4375 4 1 C-0.43076923 4.07692308 -0.43076923 4.07692308 -3.3125 3.6875 C-4.1478125 3.3471875 -4.1478125 3.3471875 -5 3 C-4.360625 2.690625 -3.72125 2.38125 -3.0625 2.0625 C-1.06389179 1.1654837 -1.06389179 1.1654837 0 0 Z " fill="#DAD8D9" transform="translate(361,331)"/>
<path d="M0 0 C0.99 0 1.98 0 3 0 C1.8141763 3.37503669 0.72426311 5.64722731 -2 8 C-1.125 1.125 -1.125 1.125 0 0 Z " fill="#C7C5C6" transform="translate(372,318)"/>
<path d="M0 0 C0.99 0 1.98 0 3 0 C3 2.97 3 5.94 3 9 C1.35649921 5.71299843 0.58678331 3.52069985 0 0 Z " fill="#F0EEEF" transform="translate(179,290)"/>
<path d="M0 0 C2.475 0.99 2.475 0.99 5 2 C3.35 3.32 1.7 4.64 0 6 C0 5.01 0 4.02 0 3 C-0.66 2.67 -1.32 2.34 -2 2 C-1.34 1.34 -0.68 0.68 0 0 Z " fill="#CDCBCC" transform="translate(344,344)"/>
<path d="M0 0 C-1.15173355 2.46800047 -2.04783565 4.04783565 -4 6 C-4.99 5.67 -5.98 5.34 -7 5 C-2.25 0 -2.25 0 0 0 Z " fill="#C6C2C3" transform="translate(162,307)"/>
<path d="M0 0 C2.29013653 3.4352048 2.17842973 4.985331 2 9 C1.01 9 0.02 9 -1 9 C-1.33 8.34 -1.66 7.68 -2 7 C-1.01 7 -0.02 7 1 7 C0.67 4.69 0.34 2.38 0 0 Z " fill="#B5B0B1" transform="translate(200,193)"/>
</svg>
